<svg xmlns="http://www.w3.org/2000/svg" version="1.1" xmlns:xlink="http://www.w3.org/1999/xlink" xmlns:svgjs="http://svgjs.dev/svgjs" width="1000" height="1000"><g clip-path="url(#SvgjsClipPath1137)"><rect width="1000" height="1000" fill="#ffffff"></rect><g transform="matrix(2.0161290322580645,0,0,2.0161290322580645,0,0)"><svg xmlns="http://www.w3.org/2000/svg" version="1.1" xmlns:xlink="http://www.w3.org/1999/xlink" xmlns:svgjs="http://svgjs.dev/svgjs" width="496" height="496"><svg xmlns="http://www.w3.org/2000/svg" xmlns:xlink="http://www.w3.org/1999/xlink" version="1.1" id="Layer_1" x="0px" y="0px" width="496" viewBox="0 0 496 496" enable-background="new 0 0 496 496" xml:space="preserve" height="496">
<path fill="#000000" opacity="1.000000" stroke="none" d=" M114.967728,300.180511   C95.433273,291.554718 76.295189,282.965515 57.024567,274.684723   C53.047218,272.975616 52.065483,270.645264 51.507141,266.492279   C50.032551,255.524124 54.178654,249.974609 64.413841,245.099411   C105.749382,225.410553 146.509033,204.513031 187.502136,184.103653   C189.355286,183.181046 191.089798,181.554855 194.306641,182.521652   C194.306641,189.411072 194.390808,196.509232 194.288849,203.604736   C194.086502,217.684357 196.446793,214.197952 183.966919,220.058594   C164.683426,229.114319 145.264709,237.881989 125.910149,246.786621   C124.722321,247.333115 123.593842,248.008652 122.290291,248.702652   C123.662521,250.285400 125.244019,249.621933 126.581665,249.629547   C138.907837,249.699844 151.234558,249.668320 163.561096,249.684341   C170.303131,249.693100 170.302750,249.708649 170.313049,256.659668   C170.317245,259.491425 170.097504,262.346008 170.380295,265.149750   C170.832687,269.635010 168.774139,270.982300 164.598984,270.921539   C153.442307,270.759125 142.282196,270.816315 131.123489,270.826294   C129.039230,270.828156 126.955147,271.016174 124.690704,272.008423   C135.884811,276.624969 147.080460,281.237701 158.272537,285.859161   C168.889236,290.243011 179.465637,294.727966 190.139420,298.967834   C193.263519,300.208771 194.418289,302.050415 194.363190,305.357239   C194.205917,314.796021 194.307892,324.239136 194.307892,335.232483   C167.175186,323.242523 141.246155,311.784454 114.967728,300.180511  z"></path>
<path fill="#000000" opacity="1.000000" stroke="none" d=" M349.559753,284.448303   C357.465332,281.446320 357.271118,281.453522 356.967743,273.289948   C356.633759,264.301331 356.623413,255.297592 356.629852,246.300568   C356.633698,240.972519 354.818817,237.564346 349.452393,235.299377   C336.877777,229.992157 324.664154,223.835876 312.201477,218.253067   C308.815582,216.736343 307.512756,214.722702 307.600464,211.020172   C307.820465,201.730606 307.673157,192.432343 307.673157,183.395996   C310.275604,182.118042 311.757507,183.563065 313.308746,184.335846   C356.990814,206.097260 400.625153,227.954971 444.372437,249.584229   C448.942047,251.843491 449.930054,254.749969 450.551361,259.583160   C451.900238,270.076874 447.837433,274.823547 438.125397,278.930511   C396.258301,296.635010 354.830811,315.379089 313.238586,333.734009   C311.894470,334.327148 310.605286,335.219696 308.908142,334.824249   C307.239319,333.714325 307.716370,331.899200 307.705017,330.329773   C307.647125,322.331635 307.838898,314.328308 307.612823,306.336182   C307.510498,302.719055 308.964264,301.026276 312.223328,299.736420   C324.608795,294.834595 336.886932,289.661560 349.559753,284.448303  M383.407135,251.246201   C381.879456,250.747772 380.523956,249.516693 378.467834,250.194214   C378.467834,257.304535 378.467834,264.452179 378.467834,272.328186   C387.309479,268.830292 395.598785,266.024628 404.533356,261.182465   C396.884125,257.561676 390.491089,254.535522 383.407135,251.246201  z"></path>
<path fill="#000000" opacity="1.000000" stroke="none" d=" M240.979889,319.620850   C244.812286,332.266418 240.489120,344.476959 228.744308,353.843903   C221.548325,359.582977 213.064484,362.466797 203.990143,363.673065   C200.089127,364.191650 199.265488,362.181152 200.094498,358.879639   C200.254364,358.242981 200.530640,357.595032 200.905640,357.058929   C207.530716,347.587891 209.628845,336.776306 210.692169,325.533661   C211.478134,317.223511 216.237564,311.716034 224.417023,309.725555   C227.918198,308.873566 228.553055,306.177155 229.553268,303.607697   C240.793228,274.733276 252.913620,246.241837 266.754883,218.509018   C278.139282,195.698853 290.102814,173.207932 304.378387,152.028107   C308.002014,146.651886 308.264099,146.330292 312.094543,144.495926   C313.241516,147.201355 312.203918,149.708984 311.508179,152.181015   C302.598358,183.837753 290.272186,214.207413 276.536896,244.017548   C265.801025,267.318054 253.913589,290.045807 241.386322,312.434265   C240.126312,314.686157 238.797028,316.796631 240.979889,319.620850  z"></path>
</svg></svg></g></g><defs><clipPath id="SvgjsClipPath1137"><rect width="1000" height="1000" x="0" y="0" rx="500" ry="500"></rect></clipPath></defs></svg>